<mxfile host="Electron" agent="Mozilla/5.0 (Windows NT 10.0; Win64; x64) AppleWebKit/537.36 (KHTML, like Gecko) draw.io/25.0.1 Chrome/128.0.6613.186 Electron/32.2.6 Safari/537.36" version="25.0.1">
  <diagram name="Use Case Diagram" id="FgglNel2U1L5TTHVHAgJ">
    <mxGraphModel dx="1754" dy="880" grid="0" gridSize="10" guides="1" tooltips="1" connect="1" arrows="1" fold="1" page="0" pageScale="1" pageWidth="850" pageHeight="1100" math="0" shadow="0">
      <root>
        <mxCell id="0" />
        <mxCell id="1" parent="0" />
        <mxCell id="YS5-fEkslZxsQK353Ww7-88" value="" style="rounded=0;whiteSpace=wrap;html=1;fillColor=none;strokeWidth=2;fontSize=20;fontStyle=1" parent="1" vertex="1">
          <mxGeometry x="226" y="63" width="864" height="1071" as="geometry" />
        </mxCell>
        <mxCell id="b4xgwTWH8p54jYo2uctj-25" value="&lt;font&gt;Report Complaint&lt;/font&gt;" style="ellipse;whiteSpace=wrap;html=1;fillColor=none;strokeWidth=2;fontSize=20;fontStyle=1" parent="1" vertex="1">
          <mxGeometry x="352" y="95" width="131" height="83" as="geometry" />
        </mxCell>
        <mxCell id="YS5-fEkslZxsQK353Ww7-9" value="&lt;font&gt;Forward Complaint&amp;nbsp;&lt;/font&gt;" style="ellipse;whiteSpace=wrap;html=1;fillColor=none;strokeWidth=2;fontSize=20;fontStyle=1" parent="1" vertex="1">
          <mxGeometry x="643" y="81" width="142" height="78" as="geometry" />
        </mxCell>
        <mxCell id="YS5-fEkslZxsQK353Ww7-10" value="&lt;font&gt;Highlight Urgent Complaint&lt;/font&gt;" style="ellipse;whiteSpace=wrap;html=1;fillColor=none;strokeWidth=2;fontSize=20;fontStyle=1" parent="1" vertex="1">
          <mxGeometry x="720" y="156" width="197" height="90" as="geometry" />
        </mxCell>
        <mxCell id="YS5-fEkslZxsQK353Ww7-11" value="&lt;font&gt;&amp;lt;&amp;lt;include&amp;gt;&amp;gt;&lt;/font&gt;" style="html=1;verticalAlign=bottom;labelBackgroundColor=none;endArrow=open;endFill=0;dashed=1;rounded=0;fontSize=20;strokeWidth=2;entryX=0;entryY=0.629;entryDx=0;entryDy=0;entryPerimeter=0;exitX=1;exitY=0.5;exitDx=0;exitDy=0;fontStyle=1" parent="1" source="b4xgwTWH8p54jYo2uctj-25" target="YS5-fEkslZxsQK353Ww7-9" edge="1">
          <mxGeometry x="0.0029" width="160" relative="1" as="geometry">
            <mxPoint x="474" y="258" as="sourcePoint" />
            <mxPoint x="634" y="258" as="targetPoint" />
            <mxPoint as="offset" />
          </mxGeometry>
        </mxCell>
        <mxCell id="YS5-fEkslZxsQK353Ww7-13" value="&amp;lt;&amp;lt;extend&amp;gt;&amp;gt;" style="edgeStyle=none;html=1;startArrow=open;endArrow=none;startSize=12;verticalAlign=bottom;dashed=1;labelBackgroundColor=none;rounded=0;fontSize=20;strokeWidth=2;exitX=1;exitY=1;exitDx=0;exitDy=0;fontStyle=1" parent="1" source="b4xgwTWH8p54jYo2uctj-25" target="YS5-fEkslZxsQK353Ww7-10" edge="1">
          <mxGeometry width="160" relative="1" as="geometry">
            <mxPoint x="343" y="476" as="sourcePoint" />
            <mxPoint x="503" y="476" as="targetPoint" />
          </mxGeometry>
        </mxCell>
        <mxCell id="YS5-fEkslZxsQK353Ww7-14" value="&lt;font&gt;Track Complaint History&lt;/font&gt;" style="ellipse;whiteSpace=wrap;html=1;fillColor=none;strokeWidth=2;fontSize=20;fontStyle=1" parent="1" vertex="1">
          <mxGeometry x="847" y="277" width="199" height="74" as="geometry" />
        </mxCell>
        <mxCell id="YS5-fEkslZxsQK353Ww7-15" value="&lt;font&gt;View Representative Stats&lt;/font&gt;" style="ellipse;whiteSpace=wrap;html=1;fillColor=none;strokeWidth=2;fontSize=20;fontStyle=1" parent="1" vertex="1">
          <mxGeometry x="415" y="348" width="187" height="84" as="geometry" />
        </mxCell>
        <mxCell id="YS5-fEkslZxsQK353Ww7-16" value="&lt;font&gt;Participate in Surveys&lt;/font&gt;" style="ellipse;whiteSpace=wrap;html=1;fillColor=none;strokeWidth=2;fontSize=20;fontStyle=1" parent="1" vertex="1">
          <mxGeometry x="552" y="443.5" width="148" height="87" as="geometry" />
        </mxCell>
        <mxCell id="YS5-fEkslZxsQK353Ww7-17" value="&lt;font&gt;Attend virtual Meetups&lt;/font&gt;" style="ellipse;whiteSpace=wrap;html=1;fillColor=none;strokeWidth=2;fontSize=20;fontStyle=1" parent="1" vertex="1">
          <mxGeometry x="720" y="548" width="198" height="107.5" as="geometry" />
        </mxCell>
        <mxCell id="YS5-fEkslZxsQK353Ww7-18" value="&lt;font&gt;Provide Feedback&lt;/font&gt;" style="ellipse;whiteSpace=wrap;html=1;fillColor=none;strokeWidth=2;fontSize=20;fontStyle=1" parent="1" vertex="1">
          <mxGeometry x="483" y="548" width="143" height="93" as="geometry" />
        </mxCell>
        <mxCell id="YS5-fEkslZxsQK353Ww7-20" value="" style="endArrow=classic;html=1;rounded=0;strokeWidth=2;exitX=1;exitY=0.5;exitDx=0;exitDy=0;entryX=0;entryY=0.5;entryDx=0;entryDy=0;fontSize=20;fontStyle=1" parent="1" target="b4xgwTWH8p54jYo2uctj-25" edge="1">
          <mxGeometry width="50" height="50" relative="1" as="geometry">
            <mxPoint x="128" y="331" as="sourcePoint" />
            <mxPoint x="448" y="433" as="targetPoint" />
          </mxGeometry>
        </mxCell>
        <mxCell id="YS5-fEkslZxsQK353Ww7-25" value="" style="endArrow=classic;html=1;rounded=0;strokeWidth=2;exitX=1;exitY=0.5;exitDx=0;exitDy=0;fontSize=20;fontStyle=1" parent="1" target="YS5-fEkslZxsQK353Ww7-14" edge="1">
          <mxGeometry width="50" height="50" relative="1" as="geometry">
            <mxPoint x="128" y="331" as="sourcePoint" />
            <mxPoint x="381" y="326" as="targetPoint" />
          </mxGeometry>
        </mxCell>
        <mxCell id="YS5-fEkslZxsQK353Ww7-29" value="" style="endArrow=classic;html=1;rounded=0;strokeWidth=2;entryX=0.007;entryY=0.417;entryDx=0;entryDy=0;entryPerimeter=0;exitX=1;exitY=0.5;exitDx=0;exitDy=0;fontSize=20;fontStyle=1" parent="1" target="YS5-fEkslZxsQK353Ww7-15" edge="1">
          <mxGeometry width="50" height="50" relative="1" as="geometry">
            <mxPoint x="128" y="331" as="sourcePoint" />
            <mxPoint x="315" y="400" as="targetPoint" />
          </mxGeometry>
        </mxCell>
        <mxCell id="YS5-fEkslZxsQK353Ww7-30" value="" style="endArrow=classic;html=1;rounded=0;strokeWidth=2;entryX=0;entryY=0.5;entryDx=0;entryDy=0;exitX=1;exitY=0.5;exitDx=0;exitDy=0;fontSize=20;fontStyle=1" parent="1" target="YS5-fEkslZxsQK353Ww7-16" edge="1">
          <mxGeometry width="50" height="50" relative="1" as="geometry">
            <mxPoint x="128" y="331" as="sourcePoint" />
            <mxPoint x="523" y="439" as="targetPoint" />
          </mxGeometry>
        </mxCell>
        <mxCell id="YS5-fEkslZxsQK353Ww7-31" value="" style="endArrow=classic;html=1;rounded=0;strokeWidth=2;entryX=0;entryY=0.5;entryDx=0;entryDy=0;exitX=1;exitY=0.5;exitDx=0;exitDy=0;fontSize=20;fontStyle=1" parent="1" target="YS5-fEkslZxsQK353Ww7-17" edge="1">
          <mxGeometry width="50" height="50" relative="1" as="geometry">
            <mxPoint x="128" y="331" as="sourcePoint" />
            <mxPoint x="412" y="486" as="targetPoint" />
          </mxGeometry>
        </mxCell>
        <mxCell id="YS5-fEkslZxsQK353Ww7-32" value="" style="endArrow=classic;html=1;rounded=0;strokeWidth=2;exitX=1;exitY=0.5;exitDx=0;exitDy=0;entryX=0;entryY=0;entryDx=0;entryDy=0;fontSize=20;fontStyle=1" parent="1" target="YS5-fEkslZxsQK353Ww7-18" edge="1">
          <mxGeometry width="50" height="50" relative="1" as="geometry">
            <mxPoint x="128" y="331" as="sourcePoint" />
            <mxPoint x="497" y="552" as="targetPoint" />
          </mxGeometry>
        </mxCell>
        <mxCell id="YS5-fEkslZxsQK353Ww7-33" value="&lt;font&gt;Create Surveys&lt;/font&gt;" style="ellipse;whiteSpace=wrap;html=1;fillColor=none;strokeWidth=2;fontSize=20;fontStyle=1" parent="1" vertex="1">
          <mxGeometry x="415" y="627" width="120" height="80" as="geometry" />
        </mxCell>
        <mxCell id="YS5-fEkslZxsQK353Ww7-42" value="" style="group;strokeWidth=2;fontSize=20;fontStyle=1" parent="1" vertex="1" connectable="0">
          <mxGeometry x="78" y="303" width="62" height="60" as="geometry" />
        </mxCell>
        <mxCell id="YS5-fEkslZxsQK353Ww7-1" value="&lt;span&gt;Constituent&lt;/span&gt;" style="shape=umlActor;verticalLabelPosition=bottom;verticalAlign=top;html=1;outlineConnect=0;container=0;strokeWidth=2;fontSize=20;fontStyle=1" parent="YS5-fEkslZxsQK353Ww7-42" vertex="1">
          <mxGeometry width="30" height="60" as="geometry" />
        </mxCell>
        <mxCell id="M8ozzg7b7dtksekyw43J-2" value="" style="ellipse;whiteSpace=wrap;html=1;aspect=fixed;fillColor=#000000;strokeWidth=2;fontSize=20;fontStyle=1" parent="YS5-fEkslZxsQK353Ww7-42" vertex="1">
          <mxGeometry x="48" y="23" width="12" height="12" as="geometry" />
        </mxCell>
        <mxCell id="YS5-fEkslZxsQK353Ww7-43" value="" style="group;fillColor=none;fillStyle=solid;strokeWidth=2;fontSize=20;fontStyle=1" parent="1" vertex="1" connectable="0">
          <mxGeometry x="79" y="729" width="112.5" height="96" as="geometry" />
        </mxCell>
        <mxCell id="YS5-fEkslZxsQK353Ww7-44" value="&lt;span&gt;Representative&lt;/span&gt;" style="shape=umlActor;verticalLabelPosition=bottom;verticalAlign=top;html=1;outlineConnect=0;container=0;strokeWidth=2;fontSize=20;fontStyle=1" parent="YS5-fEkslZxsQK353Ww7-43" vertex="1">
          <mxGeometry width="30" height="60" as="geometry" />
        </mxCell>
        <mxCell id="15X7V-9P8L0E1aSrZ_Ix-7" value="" style="group" parent="YS5-fEkslZxsQK353Ww7-43" vertex="1" connectable="0">
          <mxGeometry x="-82.5" y="202" width="195" height="99" as="geometry" />
        </mxCell>
        <mxCell id="15X7V-9P8L0E1aSrZ_Ix-2" value="" style="html=1;outlineConnect=0;whiteSpace=wrap;fillColor=none;verticalLabelPosition=bottom;verticalAlign=top;align=center;shape=mxgraph.archimate3.actor;strokeWidth=2;fontSize=20;fontStyle=1" parent="15X7V-9P8L0E1aSrZ_Ix-7" vertex="1">
          <mxGeometry x="84.25" width="26.5" height="50" as="geometry" />
        </mxCell>
        <mxCell id="15X7V-9P8L0E1aSrZ_Ix-6" value="Department Complaint Handler" style="rounded=0;whiteSpace=wrap;html=1;strokeColor=none;fillColor=none;strokeWidth=2;fontSize=20;fontStyle=1" parent="15X7V-9P8L0E1aSrZ_Ix-7" vertex="1">
          <mxGeometry y="39" width="195" height="60" as="geometry" />
        </mxCell>
        <mxCell id="YS5-fEkslZxsQK353Ww7-47" value="" style="endArrow=classic;html=1;rounded=0;strokeWidth=2;exitX=1;exitY=0.5;exitDx=0;exitDy=0;entryX=0;entryY=1;entryDx=0;entryDy=0;fontSize=20;fontStyle=1" parent="1" target="YS5-fEkslZxsQK353Ww7-33" edge="1">
          <mxGeometry width="50" height="50" relative="1" as="geometry">
            <mxPoint x="129" y="757" as="sourcePoint" />
            <mxPoint x="396" y="902" as="targetPoint" />
          </mxGeometry>
        </mxCell>
        <mxCell id="YS5-fEkslZxsQK353Ww7-48" value="&lt;font&gt;Compute Survey Result&lt;/font&gt;" style="ellipse;whiteSpace=wrap;html=1;fillColor=none;strokeWidth=2;fontSize=20;fontStyle=1" parent="1" vertex="1">
          <mxGeometry x="562.5" y="635" width="191" height="86" as="geometry" />
        </mxCell>
        <mxCell id="YS5-fEkslZxsQK353Ww7-50" value="&lt;font&gt;Arrange virtual Meetups&lt;/font&gt;" style="ellipse;whiteSpace=wrap;html=1;fillColor=none;strokeWidth=2;fontSize=20;fontStyle=1" parent="1" vertex="1">
          <mxGeometry x="615" y="757" width="203.5" height="89" as="geometry" />
        </mxCell>
        <mxCell id="YS5-fEkslZxsQK353Ww7-51" value="" style="endArrow=classic;html=1;rounded=0;strokeWidth=2;exitX=1;exitY=0.5;exitDx=0;exitDy=0;entryX=0.013;entryY=0.552;entryDx=0;entryDy=0;entryPerimeter=0;fontSize=20;fontStyle=1" parent="1" target="YS5-fEkslZxsQK353Ww7-50" edge="1">
          <mxGeometry width="50" height="50" relative="1" as="geometry">
            <mxPoint x="129" y="757" as="sourcePoint" />
            <mxPoint x="315" y="826" as="targetPoint" />
          </mxGeometry>
        </mxCell>
        <mxCell id="YS5-fEkslZxsQK353Ww7-57" value="&lt;font&gt;Post Event Calender&lt;/font&gt;" style="ellipse;whiteSpace=wrap;html=1;fillColor=none;strokeWidth=2;fontSize=20;fontStyle=1" parent="1" vertex="1">
          <mxGeometry x="776" y="834" width="146" height="101" as="geometry" />
        </mxCell>
        <mxCell id="YS5-fEkslZxsQK353Ww7-58" value="&lt;font&gt;Run Awarenes Compaign&lt;/font&gt;" style="ellipse;whiteSpace=wrap;html=1;fillColor=none;strokeWidth=2;fontSize=20;fontStyle=1" parent="1" vertex="1">
          <mxGeometry x="519" y="856" width="181" height="109" as="geometry" />
        </mxCell>
        <mxCell id="YS5-fEkslZxsQK353Ww7-59" value="" style="endArrow=classic;html=1;rounded=0;strokeWidth=2;exitX=1;exitY=0.5;exitDx=0;exitDy=0;fontSize=20;fontStyle=1" parent="1" target="YS5-fEkslZxsQK353Ww7-57" edge="1">
          <mxGeometry width="50" height="50" relative="1" as="geometry">
            <mxPoint x="129" y="757" as="sourcePoint" />
            <mxPoint x="408" y="890" as="targetPoint" />
          </mxGeometry>
        </mxCell>
        <mxCell id="YS5-fEkslZxsQK353Ww7-60" value="" style="endArrow=classic;html=1;rounded=0;strokeWidth=2;exitX=1;exitY=0.5;exitDx=0;exitDy=0;entryX=0;entryY=0.5;entryDx=0;entryDy=0;fontSize=20;fontStyle=1" parent="1" target="YS5-fEkslZxsQK353Ww7-58" edge="1">
          <mxGeometry width="50" height="50" relative="1" as="geometry">
            <mxPoint x="129" y="757" as="sourcePoint" />
            <mxPoint x="418" y="904" as="targetPoint" />
          </mxGeometry>
        </mxCell>
        <mxCell id="YS5-fEkslZxsQK353Ww7-69" value="&lt;span&gt;View Complaints&lt;/span&gt;" style="ellipse;whiteSpace=wrap;html=1;fillColor=none;strokeWidth=2;fontSize=20;fontStyle=1" parent="1" vertex="1">
          <mxGeometry x="270" y="894" width="156" height="76" as="geometry" />
        </mxCell>
        <mxCell id="YS5-fEkslZxsQK353Ww7-75" value="&lt;font&gt;Notify Constituent&lt;/font&gt;" style="ellipse;whiteSpace=wrap;html=1;fillColor=none;strokeWidth=2;fontSize=20;fontStyle=1" parent="1" vertex="1">
          <mxGeometry x="888" y="972" width="195" height="109" as="geometry" />
        </mxCell>
        <mxCell id="YS5-fEkslZxsQK353Ww7-89" value="&amp;lt;&amp;lt;actor&amp;gt;&amp;gt;&lt;br&gt;&lt;br&gt;&lt;span&gt;Video Conferencing Service&lt;/span&gt;" style="html=1;align=center;verticalAlign=middle;dashed=0;whiteSpace=wrap;strokeWidth=2;fontSize=20;fontStyle=1" parent="1" vertex="1">
          <mxGeometry x="1246" y="640" width="237" height="125" as="geometry" />
        </mxCell>
        <mxCell id="YS5-fEkslZxsQK353Ww7-91" value="" style="endArrow=classic;html=1;rounded=0;strokeWidth=2;exitX=0;exitY=0.5;exitDx=0;exitDy=0;entryX=0.992;entryY=0.375;entryDx=0;entryDy=0;entryPerimeter=0;fontSize=20;fontStyle=1" parent="1" source="YS5-fEkslZxsQK353Ww7-89" target="YS5-fEkslZxsQK353Ww7-50" edge="1">
          <mxGeometry width="50" height="50" relative="1" as="geometry">
            <mxPoint x="778" y="601" as="sourcePoint" />
            <mxPoint x="986" y="722" as="targetPoint" />
          </mxGeometry>
        </mxCell>
        <mxCell id="LRH05sEO5IdcGObicF3C-1" value="" style="endArrow=classic;html=1;rounded=0;strokeWidth=2;exitX=1;exitY=0.5;exitDx=0;exitDy=0;entryX=0;entryY=0;entryDx=0;entryDy=0;fontSize=20;fontStyle=1" parent="1" target="YS5-fEkslZxsQK353Ww7-69" edge="1">
          <mxGeometry width="50" height="50" relative="1" as="geometry">
            <mxPoint x="129" y="757" as="sourcePoint" />
            <mxPoint x="495" y="1131" as="targetPoint" />
          </mxGeometry>
        </mxCell>
        <mxCell id="ILpJxY8CLq0BZr6BMf7_-1" value="&lt;font&gt;Track Complaint Status&lt;/font&gt;" style="ellipse;whiteSpace=wrap;html=1;fillColor=none;strokeWidth=2;fontSize=20;fontStyle=1" parent="1" vertex="1">
          <mxGeometry x="366" y="201" width="188" height="76" as="geometry" />
        </mxCell>
        <mxCell id="ILpJxY8CLq0BZr6BMf7_-2" value="" style="endArrow=classic;html=1;rounded=0;strokeWidth=2;exitX=1;exitY=0.5;exitDx=0;exitDy=0;entryX=0.046;entryY=0.719;entryDx=0;entryDy=0;entryPerimeter=0;fontSize=20;fontStyle=1" parent="1" target="ILpJxY8CLq0BZr6BMf7_-1" edge="1">
          <mxGeometry width="50" height="50" relative="1" as="geometry">
            <mxPoint x="128" y="331" as="sourcePoint" />
            <mxPoint x="334" y="205" as="targetPoint" />
          </mxGeometry>
        </mxCell>
        <mxCell id="ILpJxY8CLq0BZr6BMf7_-3" value="&lt;font&gt;&amp;lt;&amp;lt;include&amp;gt;&amp;gt;&lt;/font&gt;" style="html=1;verticalAlign=bottom;labelBackgroundColor=none;endArrow=open;endFill=0;dashed=1;rounded=0;fontSize=20;strokeWidth=2;exitX=1;exitY=0.5;exitDx=0;exitDy=0;entryX=0;entryY=0.5;entryDx=0;entryDy=0;fontStyle=1" parent="1" source="YS5-fEkslZxsQK353Ww7-15" target="ILpJxY8CLq0BZr6BMf7_-4" edge="1">
          <mxGeometry width="160" relative="1" as="geometry">
            <mxPoint x="506" y="347" as="sourcePoint" />
            <mxPoint x="585" y="356" as="targetPoint" />
          </mxGeometry>
        </mxCell>
        <mxCell id="ILpJxY8CLq0BZr6BMf7_-4" value="&lt;font&gt;Compute Stats&lt;/font&gt;" style="ellipse;whiteSpace=wrap;html=1;fillColor=none;strokeWidth=2;fontSize=20;fontStyle=1" parent="1" vertex="1">
          <mxGeometry x="749" y="342" width="139" height="84" as="geometry" />
        </mxCell>
        <mxCell id="ILpJxY8CLq0BZr6BMf7_-5" value="&lt;font&gt;View Awarenes Compaign&lt;/font&gt;" style="ellipse;whiteSpace=wrap;html=1;fillColor=none;strokeWidth=2;fontSize=20;fontStyle=1" parent="1" vertex="1">
          <mxGeometry x="251" y="489" width="164" height="99" as="geometry" />
        </mxCell>
        <mxCell id="ILpJxY8CLq0BZr6BMf7_-6" value="" style="endArrow=classic;html=1;rounded=0;strokeWidth=2;exitX=1;exitY=0.5;exitDx=0;exitDy=0;entryX=0;entryY=0;entryDx=0;entryDy=0;fontSize=20;fontStyle=1" parent="1" target="ILpJxY8CLq0BZr6BMf7_-5" edge="1">
          <mxGeometry width="50" height="50" relative="1" as="geometry">
            <mxPoint x="128" y="331" as="sourcePoint" />
            <mxPoint x="487" y="515" as="targetPoint" />
          </mxGeometry>
        </mxCell>
        <mxCell id="ILpJxY8CLq0BZr6BMf7_-7" value="&lt;font&gt;View Event Calender&lt;/font&gt;" style="ellipse;whiteSpace=wrap;html=1;fillColor=none;strokeWidth=2;fontSize=20;fontStyle=1" parent="1" vertex="1">
          <mxGeometry x="246" y="604" width="155" height="90" as="geometry" />
        </mxCell>
        <mxCell id="ILpJxY8CLq0BZr6BMf7_-8" value="" style="endArrow=classic;html=1;rounded=0;strokeWidth=2;exitX=1;exitY=0.5;exitDx=0;exitDy=0;entryX=0;entryY=0;entryDx=0;entryDy=0;fontSize=20;fontStyle=1" parent="1" target="ILpJxY8CLq0BZr6BMf7_-7" edge="1">
          <mxGeometry width="50" height="50" relative="1" as="geometry">
            <mxPoint x="128" y="331" as="sourcePoint" />
            <mxPoint x="315" y="666" as="targetPoint" />
          </mxGeometry>
        </mxCell>
        <mxCell id="ILpJxY8CLq0BZr6BMf7_-9" value="" style="endArrow=classic;html=1;rounded=0;strokeWidth=2;exitX=1;exitY=0.5;exitDx=0;exitDy=0;entryX=0;entryY=1;entryDx=0;entryDy=0;fontSize=20;fontStyle=1" parent="1" target="YS5-fEkslZxsQK353Ww7-48" edge="1">
          <mxGeometry width="50" height="50" relative="1" as="geometry">
            <mxPoint x="129" y="757" as="sourcePoint" />
            <mxPoint x="553" y="635" as="targetPoint" />
          </mxGeometry>
        </mxCell>
        <mxCell id="ILpJxY8CLq0BZr6BMf7_-10" value="&lt;font&gt;View Survey Result&lt;/font&gt;" style="ellipse;whiteSpace=wrap;html=1;fillColor=none;strokeWidth=2;fontSize=20;fontStyle=1" parent="1" vertex="1">
          <mxGeometry x="762" y="666" width="155" height="91" as="geometry" />
        </mxCell>
        <mxCell id="ILpJxY8CLq0BZr6BMf7_-11" value="" style="endArrow=classic;html=1;rounded=0;strokeWidth=2;exitX=1;exitY=0.5;exitDx=0;exitDy=0;entryX=0;entryY=1;entryDx=0;entryDy=0;fontSize=20;fontStyle=1" parent="1" target="ILpJxY8CLq0BZr6BMf7_-10" edge="1">
          <mxGeometry width="50" height="50" relative="1" as="geometry">
            <mxPoint x="129" y="757" as="sourcePoint" />
            <mxPoint x="472" y="674" as="targetPoint" />
          </mxGeometry>
        </mxCell>
        <mxCell id="ILpJxY8CLq0BZr6BMf7_-15" value="&lt;span&gt;Update Complaint Status&lt;/span&gt;" style="ellipse;whiteSpace=wrap;html=1;fillColor=none;strokeWidth=2;fontSize=20;fontStyle=1" parent="1" vertex="1">
          <mxGeometry x="548.5" y="970" width="213" height="95" as="geometry" />
        </mxCell>
        <mxCell id="ILpJxY8CLq0BZr6BMf7_-16" value="" style="endArrow=classic;html=1;rounded=0;strokeWidth=2;exitX=1;exitY=0.5;exitDx=0;exitDy=0;entryX=0;entryY=1;entryDx=0;entryDy=0;fontSize=20;fontStyle=1" parent="1" source="M8ozzg7b7dtksekyw43J-4" target="YS5-fEkslZxsQK353Ww7-69" edge="1">
          <mxGeometry width="50" height="50" relative="1" as="geometry">
            <mxPoint x="122" y="952" as="sourcePoint" />
            <mxPoint x="325" y="930" as="targetPoint" />
          </mxGeometry>
        </mxCell>
        <mxCell id="ILpJxY8CLq0BZr6BMf7_-17" value="" style="endArrow=classic;html=1;rounded=0;strokeWidth=2;entryX=0;entryY=0.5;entryDx=0;entryDy=0;fontSize=20;fontStyle=1;exitX=1;exitY=0.5;exitDx=0;exitDy=0;" parent="1" source="M8ozzg7b7dtksekyw43J-4" target="ILpJxY8CLq0BZr6BMf7_-15" edge="1">
          <mxGeometry width="50" height="50" relative="1" as="geometry">
            <mxPoint x="122" y="952" as="sourcePoint" />
            <mxPoint x="489" y="912" as="targetPoint" />
          </mxGeometry>
        </mxCell>
        <mxCell id="ILpJxY8CLq0BZr6BMf7_-18" style="edgeStyle=orthogonalEdgeStyle;rounded=0;orthogonalLoop=1;jettySize=auto;html=1;exitX=0.5;exitY=1;exitDx=0;exitDy=0;strokeWidth=2;fontSize=20;fontStyle=1" parent="1" source="YS5-fEkslZxsQK353Ww7-75" target="YS5-fEkslZxsQK353Ww7-75" edge="1">
          <mxGeometry relative="1" as="geometry" />
        </mxCell>
        <mxCell id="ILpJxY8CLq0BZr6BMf7_-19" value="&lt;font&gt;&amp;lt;&amp;lt;include&amp;gt;&amp;gt;&lt;/font&gt;" style="html=1;verticalAlign=bottom;labelBackgroundColor=none;endArrow=open;endFill=0;dashed=1;rounded=0;fontSize=20;strokeWidth=2;exitX=1;exitY=0.5;exitDx=0;exitDy=0;entryX=0;entryY=0.5;entryDx=0;entryDy=0;fontStyle=1" parent="1" source="ILpJxY8CLq0BZr6BMf7_-15" target="YS5-fEkslZxsQK353Ww7-75" edge="1">
          <mxGeometry width="160" relative="1" as="geometry">
            <mxPoint x="576" y="1013" as="sourcePoint" />
            <mxPoint x="703" y="1003" as="targetPoint" />
          </mxGeometry>
        </mxCell>
        <mxCell id="ILpJxY8CLq0BZr6BMf7_-20" value="&lt;font&gt;Record Survey Result&lt;/font&gt;" style="ellipse;whiteSpace=wrap;html=1;fillColor=none;strokeWidth=2;fontSize=20;fontStyle=1" parent="1" vertex="1">
          <mxGeometry x="854" y="436" width="155" height="114" as="geometry" />
        </mxCell>
        <mxCell id="ILpJxY8CLq0BZr6BMf7_-22" value="&lt;font&gt;&amp;lt;&amp;lt;include&amp;gt;&amp;gt;&lt;/font&gt;" style="html=1;verticalAlign=bottom;labelBackgroundColor=none;endArrow=open;endFill=0;dashed=1;rounded=0;fontSize=20;strokeWidth=2;exitX=1;exitY=0.5;exitDx=0;exitDy=0;entryX=0;entryY=0.5;entryDx=0;entryDy=0;fontStyle=1" parent="1" source="YS5-fEkslZxsQK353Ww7-16" target="ILpJxY8CLq0BZr6BMf7_-20" edge="1">
          <mxGeometry width="160" relative="1" as="geometry">
            <mxPoint x="436" y="177" as="sourcePoint" />
            <mxPoint x="598" y="164" as="targetPoint" />
          </mxGeometry>
        </mxCell>
        <mxCell id="hWND5iTmK3fbeFWAKKNV-1" value="" style="endArrow=classic;html=1;rounded=0;strokeWidth=2;exitX=0;exitY=0.5;exitDx=0;exitDy=0;entryX=1;entryY=0.5;entryDx=0;entryDy=0;fontSize=20;fontStyle=1" parent="1" source="M8ozzg7b7dtksekyw43J-5" target="YS5-fEkslZxsQK353Ww7-17" edge="1">
          <mxGeometry width="50" height="50" relative="1" as="geometry">
            <mxPoint x="1064" y="697" as="sourcePoint" />
            <mxPoint x="703" y="744" as="targetPoint" />
          </mxGeometry>
        </mxCell>
        <mxCell id="hWND5iTmK3fbeFWAKKNV-2" value="&lt;font&gt;Recieve Notification&lt;/font&gt;" style="ellipse;whiteSpace=wrap;html=1;fillColor=none;strokeWidth=2;fontSize=20;fontStyle=1" parent="1" vertex="1">
          <mxGeometry x="609.5" y="243" width="144" height="76" as="geometry" />
        </mxCell>
        <mxCell id="hWND5iTmK3fbeFWAKKNV-3" value="" style="endArrow=classic;html=1;rounded=0;strokeWidth=2;entryX=0;entryY=0.5;entryDx=0;entryDy=0;fontSize=20;fontStyle=1" parent="1" target="hWND5iTmK3fbeFWAKKNV-2" edge="1">
          <mxGeometry width="50" height="50" relative="1" as="geometry">
            <mxPoint x="129" y="331" as="sourcePoint" />
            <mxPoint x="312" y="246" as="targetPoint" />
          </mxGeometry>
        </mxCell>
        <mxCell id="nB55NBsjXpixGiUg1DwJ-1" value="" style="endArrow=classic;html=1;rounded=0;strokeWidth=2;entryX=0;entryY=0;entryDx=0;entryDy=0;fontSize=20;fontStyle=1" parent="1" target="ILpJxY8CLq0BZr6BMf7_-15" edge="1">
          <mxGeometry width="50" height="50" relative="1" as="geometry">
            <mxPoint x="129" y="757" as="sourcePoint" />
            <mxPoint x="303" y="903" as="targetPoint" />
          </mxGeometry>
        </mxCell>
        <mxCell id="M8ozzg7b7dtksekyw43J-3" value="" style="ellipse;whiteSpace=wrap;html=1;aspect=fixed;fillColor=#000000;strokeWidth=2;fontSize=20;fontStyle=1" parent="1" vertex="1">
          <mxGeometry x="128" y="754" width="8" height="8" as="geometry" />
        </mxCell>
        <mxCell id="M8ozzg7b7dtksekyw43J-4" value="" style="ellipse;whiteSpace=wrap;html=1;aspect=fixed;fillColor=#000000;strokeWidth=2;fontSize=20;fontStyle=1" parent="1" vertex="1">
          <mxGeometry x="122" y="958" width="2" height="2" as="geometry" />
        </mxCell>
        <mxCell id="ESnm7nI6oEqIWMeHtnxG-1" value="" style="endArrow=classic;html=1;rounded=0;strokeWidth=2;exitX=0;exitY=0.5;exitDx=0;exitDy=0;entryX=1;entryY=0.5;entryDx=0;entryDy=0;fontSize=20;fontStyle=1" edge="1" parent="1" source="YS5-fEkslZxsQK353Ww7-89" target="M8ozzg7b7dtksekyw43J-5">
          <mxGeometry width="50" height="50" relative="1" as="geometry">
            <mxPoint x="1246" y="703" as="sourcePoint" />
            <mxPoint x="918" y="602" as="targetPoint" />
          </mxGeometry>
        </mxCell>
        <mxCell id="M8ozzg7b7dtksekyw43J-5" value="" style="ellipse;whiteSpace=wrap;html=1;aspect=fixed;fillColor=#000000;strokeWidth=2;fontSize=20;fontStyle=1" parent="1" vertex="1">
          <mxGeometry x="1244" y="701.5" width="2" height="2" as="geometry" />
        </mxCell>
      </root>
    </mxGraphModel>
  </diagram>
</mxfile>
